<?xml version="1.0" encoding="UTF-8" standalone="no"?>
<!-- Created with Inkscape (http://www.inkscape.org/) -->

<svg
   xmlns:dc="http://purl.org/dc/elements/1.1/"
   xmlns:cc="http://creativecommons.org/ns#"
   xmlns:rdf="http://www.w3.org/1999/02/22-rdf-syntax-ns#"
   xmlns:svg="http://www.w3.org/2000/svg"
   xmlns="http://www.w3.org/2000/svg"
   xmlns:sodipodi="http://sodipodi.sourceforge.net/DTD/sodipodi-0.dtd"
   xmlns:inkscape="http://www.inkscape.org/namespaces/inkscape"
   width="14cm"
   height="14cm"
   viewBox="0 0 496.06299 496.06298"
   id="svg2"
   version="1.1"
   inkscape:version="0.91 r13725"
   sodipodi:docname="logo ola1.svg">
  <defs
     id="defs4" />
  <sodipodi:namedview
     id="base"
     pagecolor="#ffffff"
     bordercolor="#666666"
     borderopacity="1.0"
     inkscape:pageopacity="0.0"
     inkscape:pageshadow="2"
     inkscape:zoom="0.58921933"
     inkscape:cx="580.99067"
     inkscape:cy="416.35489"
     inkscape:document-units="px"
     inkscape:current-layer="layer1"
     showgrid="false"
     inkscape:window-width="1536"
     inkscape:window-height="803"
     inkscape:window-x="-8"
     inkscape:window-y="-8"
     inkscape:window-maximized="1"
     units="cm" />
  <metadata
     id="metadata7">
    <rdf:RDF>
      <cc:Work
         rdf:about="">
        <dc:format>image/svg+xml</dc:format>
        <dc:type
           rdf:resource="http://purl.org/dc/dcmitype/StillImage" />
        <dc:title></dc:title>
      </cc:Work>
    </rdf:RDF>
  </metadata>
  <g
     inkscape:label="Layer 1"
     inkscape:groupmode="layer"
     id="layer1"
     transform="translate(0,-556.29927)">
    <rect
       style="fill:#44d9e6;fill-opacity:1;fill-rule:evenodd;stroke:none;stroke-width:1px;stroke-linecap:butt;stroke-linejoin:miter;stroke-opacity:1"
       id="rect3362"
       width="496.06299"
       height="496.06299"
       x="0.84452891"
       y="558.98956" />
    <path
       style="fill:#ffffff;fill-opacity:1;stroke:none"
       d="m 1787.5833,377.58555 0,-87.22516 2.1428,0 c 1.1786,0 2.1429,0.28002 2.1429,0.62226 0,0.34225 1.6071,0.83546 3.5714,1.09603 1.9643,0.26058 3.5714,0.71956 3.5714,1.01996 0,0.30041 1.125,0.953 2.5,1.45021 1.375,0.4972 2.5,1.20463 2.5,1.57206 0,0.36743 0.3462,0.66805 0.7693,0.66805 0.9996,0 4.945,3.94537 4.945,4.94506 0,0.42307 0.2824,0.76923 0.6276,0.76923 0.3452,0 1.0271,0.96428 1.5153,2.14285 0.4881,1.17858 1.1417,2.14286 1.4524,2.14286 0.3107,0 0.7821,1.28572 1.0476,2.85714 0.2655,1.57143 0.7759,2.85715 1.1342,2.85715 0.3877,0 0.6515,26.31882 0.6515,65 0,40.02868 -0.2576,65 -0.6705,65 -0.3688,0 -0.8875,1.44643 -1.1526,3.21428 -0.2651,1.76786 -0.7749,3.21429 -1.1328,3.21429 -0.358,0 -0.9564,0.80357 -1.3298,1.78571 -0.3734,0.98215 -1.0083,1.78572 -1.4109,1.78572 -0.4026,0 -0.7375,0.40178 -0.7443,0.89285 -0.012,0.8925 -3.0166,4.10715 -3.8384,4.10715 -0.2392,0 -1.0548,0.5625 -1.8124,1.25 -2.7408,2.48739 -3.5341,2.98607 -5.5257,3.47388 -1.114,0.27285 -2.1862,0.73539 -2.3826,1.02788 -0.1964,0.29249 -2.2054,0.76218 -4.4643,1.04375 l -4.1071,0.51195 0,-87.22516 z"
       id="path4174"
       inkscape:connector-curvature="0" />
    <circle
       style="fill:#44d9e6;fill-opacity:1;stroke:none"
       id="path4180"
       cx="243.70168"
       cy="812.19543"
       r="244.28572" />
    <path
       style="fill:#ffffff;fill-opacity:1;stroke:none"
       d="m 162.27024,752.60675 0,-87.14286 12.8571,0 12.8571,0 0,-15.71429 c 0,-26.92663 7.9729,-31.04497 57.1957,-29.54394 29.4742,0.8988 32.3053,1.48381 37.348,7.71761 3.861,4.77293 5.4563,11.24719 5.4563,22.14286 l 0,15.39776 12.8572,0 12.8571,0 0,87.14286 0,87.14285 -75.7143,0 -75.7142,0 0,-87.14285 z m 108.5714,-101.42857 0,-14.28572 -32.8572,0 -32.8571,0 0,14.28572 0,14.28571 32.8571,0 32.8572,0 0,-14.28571 z"
       id="path4164"
       inkscape:connector-curvature="0" />
    <path
       style="fill:#ffffff;fill-opacity:1;stroke:none"
       d="m 128.60394,835.29045 c -13.6128,-9.53472 -14.9052,-16.70416 -14.9052,-82.6837 0,-69.30088 1.4832,-75.90136 18.6694,-83.08222 5.3452,-2.23335 10.4027,-4.06064 11.2389,-4.06064 0.8361,0 1.5203,39.21429 1.5203,87.14286 0,81.60192 -0.3229,87.14285 -5.0786,87.14285 -2.7932,0 -7.9434,-2.00662 -11.4448,-4.45915 z"
       id="path4168"
       inkscape:connector-curvature="0" />
    <path
       style="fill:#ffffff;fill-opacity:1;stroke:none"
       d="m 169.41303,919.74961 0,-50 -15.7143,0 -15.7143,0 0,-10 0,-10 41.42861,0 41.4286,0 0,10 0,10 -14.2857,0 -14.2857,0 0,50 0,50 -11.4286,0 -11.42861,0 0,-50 z"
       id="path4170"
       inkscape:connector-curvature="0" />
    <path
       style="fill:#ffffff;fill-opacity:1;stroke:none"
       d="m 247.21332,910.4639 0.7712,-60.71429 24.2857,0.0768 c 43.0659,0.13618 65.4757,17.63054 68.0426,53.11796 1.5973,22.08203 -3.5786,39.84432 -14.7654,50.67088 -13.7645,13.32119 -26.9685,17.56294 -54.6709,17.56294 l -24.4343,0 0.7711,-60.71428 z m 56.0755,33.47792 c 18.1279,-15.25364 19.0391,-46.1345 1.8679,-63.30571 -7.9644,-7.96438 -11.5334,-9.45793 -22.6008,-9.45793 l -13.1429,0 0,40 0,40 12.638,0 c 9.3555,0 14.8715,-1.87945 21.2378,-7.23636 z"
       id="path4172"
       inkscape:connector-curvature="0" />
    <path
       style="fill:#ffffff;fill-opacity:1;stroke:none"
       d="m 332.24228,752.76544 0,-87.22516 2.1007,0 c 1.1553,0 2.2732,0.27921 2.4841,0.62046 0.2109,0.34126 1.66,0.82458 3.2201,1.07405 2.7394,0.43805 8.0166,3.02856 8.5046,4.17479 0.1309,0.3076 0.5821,0.55927 1.0026,0.55927 1.0945,0 6.0656,5.54723 7.134,7.96088 0.4964,1.12152 1.1455,2.03912 1.4425,2.03912 0.297,0 0.5419,0.5625 0.5443,1.25 0,0.6875 0.4846,2.17067 1.0715,3.29593 0.9235,1.77081 1.067,10.72223 1.067,66.56499 0,38.14287 -0.2666,64.68382 -0.6522,64.9221 -0.3586,0.22167 -0.869,1.68707 -1.1342,3.25644 -0.2651,1.56937 -0.7536,2.8534 -1.0854,2.8534 -0.3319,0 -0.7838,0.5625 -1.0044,1.25 -0.9565,2.98133 -9.7279,10.88633 -13.2667,11.95633 -0.9821,0.29697 -2.1071,0.79105 -2.5,1.09796 -0.3928,0.30692 -2.5625,0.78676 -4.8214,1.06632 l -4.1071,0.50828 0,-87.22516 z"
       id="path4176"
       inkscape:connector-curvature="0" />
  </g>
</svg>
